<mxfile host="65bd71144e">
    <diagram id="h0RsR8Rh7Uwqv2m78Xh3" name="Structure">
        <mxGraphModel dx="735" dy="796" grid="1" gridSize="10" guides="1" tooltips="1" connect="1" arrows="1" fold="1" page="1" pageScale="1" pageWidth="1100" pageHeight="850" math="0" shadow="0">
            <root>
                <mxCell id="0"/>
                <mxCell id="1" parent="0"/>
                <mxCell id="_NRN4qs7gIH1pBPz83vD-9" style="edgeStyle=orthogonalEdgeStyle;rounded=0;orthogonalLoop=1;jettySize=auto;html=1;entryX=1;entryY=0.5;entryDx=0;entryDy=0;fontSize=8;" parent="1" source="_NRN4qs7gIH1pBPz83vD-1" target="_NRN4qs7gIH1pBPz83vD-7" edge="1">
                    <mxGeometry relative="1" as="geometry">
                        <mxPoint x="280" y="120" as="targetPoint"/>
                        <Array as="points">
                            <mxPoint x="180" y="135"/>
                        </Array>
                    </mxGeometry>
                </mxCell>
                <mxCell id="_NRN4qs7gIH1pBPz83vD-67" style="edgeStyle=orthogonalEdgeStyle;rounded=0;orthogonalLoop=1;jettySize=auto;html=1;entryX=0.5;entryY=0;entryDx=0;entryDy=0;fontSize=8;" parent="1" source="_NRN4qs7gIH1pBPz83vD-1" target="_NRN4qs7gIH1pBPz83vD-53" edge="1">
                    <mxGeometry relative="1" as="geometry">
                        <Array as="points">
                            <mxPoint x="180" y="100"/>
                            <mxPoint x="780" y="100"/>
                        </Array>
                    </mxGeometry>
                </mxCell>
                <mxCell id="_NRN4qs7gIH1pBPz83vD-68" style="edgeStyle=orthogonalEdgeStyle;rounded=0;orthogonalLoop=1;jettySize=auto;html=1;entryX=0.5;entryY=0;entryDx=0;entryDy=0;fontSize=8;" parent="1" source="_NRN4qs7gIH1pBPz83vD-1" target="_NRN4qs7gIH1pBPz83vD-20" edge="1">
                    <mxGeometry relative="1" as="geometry">
                        <Array as="points">
                            <mxPoint x="180" y="100"/>
                            <mxPoint x="610" y="100"/>
                        </Array>
                    </mxGeometry>
                </mxCell>
                <mxCell id="_NRN4qs7gIH1pBPz83vD-69" style="edgeStyle=orthogonalEdgeStyle;rounded=0;orthogonalLoop=1;jettySize=auto;html=1;fontSize=8;" parent="1" source="_NRN4qs7gIH1pBPz83vD-1" target="_NRN4qs7gIH1pBPz83vD-18" edge="1">
                    <mxGeometry relative="1" as="geometry">
                        <Array as="points">
                            <mxPoint x="180" y="100"/>
                            <mxPoint x="450" y="100"/>
                        </Array>
                    </mxGeometry>
                </mxCell>
                <mxCell id="_NRN4qs7gIH1pBPz83vD-71" style="edgeStyle=orthogonalEdgeStyle;rounded=0;orthogonalLoop=1;jettySize=auto;html=1;entryX=0.5;entryY=0;entryDx=0;entryDy=0;fontSize=8;" parent="1" source="_NRN4qs7gIH1pBPz83vD-1" target="_NRN4qs7gIH1pBPz83vD-16" edge="1">
                    <mxGeometry relative="1" as="geometry">
                        <Array as="points">
                            <mxPoint x="180" y="100"/>
                            <mxPoint x="290" y="100"/>
                        </Array>
                    </mxGeometry>
                </mxCell>
                <mxCell id="_NRN4qs7gIH1pBPz83vD-1" value="Wall-E" style="rounded=1;whiteSpace=wrap;html=1;fontSize=8;" parent="1" vertex="1">
                    <mxGeometry x="120" y="20" width="120" height="60" as="geometry"/>
                </mxCell>
                <mxCell id="_NRN4qs7gIH1pBPz83vD-2" value="package.json" style="rounded=1;whiteSpace=wrap;html=1;fontSize=8;" parent="1" vertex="1">
                    <mxGeometry x="60" y="200" width="100" height="30" as="geometry"/>
                </mxCell>
                <mxCell id="_NRN4qs7gIH1pBPz83vD-4" value="README.md" style="rounded=1;whiteSpace=wrap;html=1;fontSize=8;" parent="1" vertex="1">
                    <mxGeometry x="60" y="160" width="100" height="30" as="geometry"/>
                </mxCell>
                <mxCell id="_NRN4qs7gIH1pBPz83vD-7" value="&lt;div style=&quot;font-size: 8px;&quot;&gt;bot.js&lt;/div&gt;" style="rounded=1;whiteSpace=wrap;html=1;fontSize=8;" parent="1" vertex="1">
                    <mxGeometry x="60" y="120" width="100" height="30" as="geometry"/>
                </mxCell>
                <mxCell id="_NRN4qs7gIH1pBPz83vD-8" value=".gitignore" style="rounded=1;whiteSpace=wrap;html=1;fontSize=8;" parent="1" vertex="1">
                    <mxGeometry x="60" y="280" width="100" height="30" as="geometry"/>
                </mxCell>
                <mxCell id="_NRN4qs7gIH1pBPz83vD-11" value="" style="endArrow=classic;html=1;rounded=0;entryX=1;entryY=0.5;entryDx=0;entryDy=0;fontSize=8;" parent="1" target="_NRN4qs7gIH1pBPz83vD-17" edge="1">
                    <mxGeometry width="50" height="50" relative="1" as="geometry">
                        <mxPoint x="180" y="100" as="sourcePoint"/>
                        <mxPoint x="180" y="240" as="targetPoint"/>
                        <Array as="points">
                            <mxPoint x="180" y="335"/>
                        </Array>
                    </mxGeometry>
                </mxCell>
                <mxCell id="_NRN4qs7gIH1pBPz83vD-12" value=".env" style="rounded=1;whiteSpace=wrap;html=1;fontSize=8;" parent="1" vertex="1">
                    <mxGeometry x="60" y="240" width="100" height="30" as="geometry"/>
                </mxCell>
                <mxCell id="_NRN4qs7gIH1pBPz83vD-13" value="" style="endArrow=classic;html=1;rounded=0;entryX=1;entryY=0.5;entryDx=0;entryDy=0;fontSize=8;" parent="1" target="_NRN4qs7gIH1pBPz83vD-12" edge="1">
                    <mxGeometry width="50" height="50" relative="1" as="geometry">
                        <mxPoint x="180" y="255" as="sourcePoint"/>
                        <mxPoint x="450" y="320" as="targetPoint"/>
                    </mxGeometry>
                </mxCell>
                <mxCell id="_NRN4qs7gIH1pBPz83vD-14" value="" style="endArrow=classic;html=1;rounded=0;entryX=1;entryY=0.5;entryDx=0;entryDy=0;fontSize=8;" parent="1" target="_NRN4qs7gIH1pBPz83vD-4" edge="1">
                    <mxGeometry width="50" height="50" relative="1" as="geometry">
                        <mxPoint x="180" y="175" as="sourcePoint"/>
                        <mxPoint x="250" y="210" as="targetPoint"/>
                    </mxGeometry>
                </mxCell>
                <mxCell id="_NRN4qs7gIH1pBPz83vD-15" value="" style="endArrow=classic;html=1;rounded=0;entryX=1;entryY=0.5;entryDx=0;entryDy=0;fontSize=8;" parent="1" target="_NRN4qs7gIH1pBPz83vD-2" edge="1">
                    <mxGeometry width="50" height="50" relative="1" as="geometry">
                        <mxPoint x="180" y="215" as="sourcePoint"/>
                        <mxPoint x="250" y="190" as="targetPoint"/>
                    </mxGeometry>
                </mxCell>
                <mxCell id="_NRN4qs7gIH1pBPz83vD-16" value="./core" style="rounded=0;whiteSpace=wrap;html=1;fontSize=8;" parent="1" vertex="1">
                    <mxGeometry x="240" y="120" width="100" height="30" as="geometry"/>
                </mxCell>
                <mxCell id="_NRN4qs7gIH1pBPz83vD-17" value="./node_modules" style="rounded=0;whiteSpace=wrap;html=1;fontSize=8;" parent="1" vertex="1">
                    <mxGeometry x="60" y="320" width="100" height="30" as="geometry"/>
                </mxCell>
                <mxCell id="_NRN4qs7gIH1pBPz83vD-18" value="./events" style="rounded=0;whiteSpace=wrap;html=1;fontSize=8;" parent="1" vertex="1">
                    <mxGeometry x="400" y="120" width="100" height="30" as="geometry"/>
                </mxCell>
                <mxCell id="_NRN4qs7gIH1pBPz83vD-20" value="./interactions" style="rounded=0;whiteSpace=wrap;html=1;fontSize=8;" parent="1" vertex="1">
                    <mxGeometry x="560" y="120" width="100" height="30" as="geometry"/>
                </mxCell>
                <mxCell id="_NRN4qs7gIH1pBPz83vD-21" value="botClient.js" style="rounded=1;whiteSpace=wrap;html=1;fontSize=8;" parent="1" vertex="1">
                    <mxGeometry x="270" y="160" width="100" height="30" as="geometry"/>
                </mxCell>
                <mxCell id="_NRN4qs7gIH1pBPz83vD-22" value="&lt;div style=&quot;font-size: 8px;&quot;&gt;logger.js&lt;/div&gt;" style="rounded=1;whiteSpace=wrap;html=1;fontSize=8;" parent="1" vertex="1">
                    <mxGeometry x="270" y="200" width="100" height="30" as="geometry"/>
                </mxCell>
                <mxCell id="_NRN4qs7gIH1pBPz83vD-23" value="&lt;div style=&quot;font-size: 8px;&quot;&gt;/rules&lt;/div&gt;" style="rounded=0;whiteSpace=wrap;html=1;fontSize=8;" parent="1" vertex="1">
                    <mxGeometry x="760" y="160" width="100" height="30" as="geometry"/>
                </mxCell>
                <mxCell id="_NRN4qs7gIH1pBPz83vD-24" value="/images" style="rounded=0;whiteSpace=wrap;html=1;fontSize=8;" parent="1" vertex="1">
                    <mxGeometry x="760" y="200" width="100" height="30" as="geometry"/>
                </mxCell>
                <mxCell id="_NRN4qs7gIH1pBPz83vD-25" value="/commands" style="rounded=0;whiteSpace=wrap;html=1;fontSize=8;" parent="1" vertex="1">
                    <mxGeometry x="590" y="160" width="100" height="30" as="geometry"/>
                </mxCell>
                <mxCell id="_NRN4qs7gIH1pBPz83vD-26" value="/buttons" style="rounded=0;whiteSpace=wrap;html=1;fontSize=8;" parent="1" vertex="1">
                    <mxGeometry x="590" y="200" width="100" height="30" as="geometry"/>
                </mxCell>
                <mxCell id="_NRN4qs7gIH1pBPz83vD-27" value="/selectMenus" style="rounded=0;whiteSpace=wrap;html=1;fontSize=8;" parent="1" vertex="1">
                    <mxGeometry x="590" y="240" width="100" height="30" as="geometry"/>
                </mxCell>
                <mxCell id="_NRN4qs7gIH1pBPz83vD-28" value="/contextMenus" style="rounded=0;whiteSpace=wrap;html=1;fontSize=8;" parent="1" vertex="1">
                    <mxGeometry x="590" y="280" width="100" height="30" as="geometry"/>
                </mxCell>
                <mxCell id="_NRN4qs7gIH1pBPz83vD-29" value="&lt;div style=&quot;font-size: 8px;&quot;&gt;messageCreate.js&lt;/div&gt;" style="rounded=1;whiteSpace=wrap;html=1;fontSize=8;" parent="1" vertex="1">
                    <mxGeometry x="430" y="200" width="100" height="30" as="geometry"/>
                </mxCell>
                <mxCell id="_NRN4qs7gIH1pBPz83vD-30" value="&lt;div style=&quot;font-size: 8px;&quot;&gt;interactionCreate.js&lt;/div&gt;" style="rounded=1;whiteSpace=wrap;html=1;fontSize=8;" parent="1" vertex="1">
                    <mxGeometry x="430" y="240" width="100" height="30" as="geometry"/>
                </mxCell>
                <mxCell id="_NRN4qs7gIH1pBPz83vD-31" value="&lt;div style=&quot;font-size: 8px;&quot;&gt;ready.js&lt;/div&gt;" style="rounded=1;whiteSpace=wrap;html=1;fontSize=8;" parent="1" vertex="1">
                    <mxGeometry x="430" y="160" width="100" height="30" as="geometry"/>
                </mxCell>
                <mxCell id="_NRN4qs7gIH1pBPz83vD-33" value="voiceStateUpdate.js" style="rounded=1;whiteSpace=wrap;html=1;fontSize=8;" parent="1" vertex="1">
                    <mxGeometry x="430" y="280" width="100" height="30" as="geometry"/>
                </mxCell>
                <mxCell id="_NRN4qs7gIH1pBPz83vD-34" value="&lt;div style=&quot;font-size: 8px;&quot;&gt;guildMemberUpdate.js&lt;/div&gt;" style="rounded=1;whiteSpace=wrap;html=1;fontSize=8;" parent="1" vertex="1">
                    <mxGeometry x="430" y="320" width="100" height="30" as="geometry"/>
                </mxCell>
                <mxCell id="_NRN4qs7gIH1pBPz83vD-35" value="" style="endArrow=classic;html=1;rounded=0;fontSize=8;entryX=0;entryY=0.5;entryDx=0;entryDy=0;" parent="1" target="_NRN4qs7gIH1pBPz83vD-31" edge="1">
                    <mxGeometry width="50" height="50" relative="1" as="geometry">
                        <mxPoint x="410" y="175" as="sourcePoint"/>
                        <mxPoint x="530" y="220" as="targetPoint"/>
                    </mxGeometry>
                </mxCell>
                <mxCell id="_NRN4qs7gIH1pBPz83vD-36" value="" style="endArrow=none;html=1;rounded=0;fontSize=8;" parent="1" edge="1">
                    <mxGeometry width="50" height="50" relative="1" as="geometry">
                        <mxPoint x="410" y="320" as="sourcePoint"/>
                        <mxPoint x="409.78" y="150" as="targetPoint"/>
                    </mxGeometry>
                </mxCell>
                <mxCell id="_NRN4qs7gIH1pBPz83vD-37" value="" style="endArrow=classic;html=1;rounded=0;fontSize=8;entryX=0;entryY=0.5;entryDx=0;entryDy=0;" parent="1" edge="1">
                    <mxGeometry width="50" height="50" relative="1" as="geometry">
                        <mxPoint x="410" y="214.92000000000002" as="sourcePoint"/>
                        <mxPoint x="429.9999999999999" y="214.92000000000002" as="targetPoint"/>
                    </mxGeometry>
                </mxCell>
                <mxCell id="_NRN4qs7gIH1pBPz83vD-38" value="" style="endArrow=classic;html=1;rounded=0;fontSize=8;entryX=0;entryY=0.5;entryDx=0;entryDy=0;" parent="1" edge="1">
                    <mxGeometry width="50" height="50" relative="1" as="geometry">
                        <mxPoint x="410" y="254.92000000000002" as="sourcePoint"/>
                        <mxPoint x="429.9999999999999" y="254.92000000000002" as="targetPoint"/>
                    </mxGeometry>
                </mxCell>
                <mxCell id="_NRN4qs7gIH1pBPz83vD-39" value="" style="endArrow=classic;html=1;rounded=0;fontSize=8;entryX=0;entryY=0.5;entryDx=0;entryDy=0;" parent="1" edge="1">
                    <mxGeometry width="50" height="50" relative="1" as="geometry">
                        <mxPoint x="410" y="294.92" as="sourcePoint"/>
                        <mxPoint x="429.9999999999999" y="294.92" as="targetPoint"/>
                    </mxGeometry>
                </mxCell>
                <mxCell id="_NRN4qs7gIH1pBPz83vD-40" value="" style="endArrow=classic;html=1;rounded=0;fontSize=8;entryX=0;entryY=0.5;entryDx=0;entryDy=0;" parent="1" edge="1">
                    <mxGeometry width="50" height="50" relative="1" as="geometry">
                        <mxPoint x="410" y="320" as="sourcePoint"/>
                        <mxPoint x="429.9999999999999" y="334.92" as="targetPoint"/>
                        <Array as="points">
                            <mxPoint x="410" y="335"/>
                        </Array>
                    </mxGeometry>
                </mxCell>
                <mxCell id="_NRN4qs7gIH1pBPz83vD-47" value="config.js" style="rounded=1;whiteSpace=wrap;html=1;fontSize=8;" parent="1" vertex="1">
                    <mxGeometry x="270" y="240" width="100" height="30" as="geometry"/>
                </mxCell>
                <mxCell id="_NRN4qs7gIH1pBPz83vD-49" value="" style="endArrow=none;html=1;rounded=0;fontSize=8;" parent="1" edge="1">
                    <mxGeometry width="50" height="50" relative="1" as="geometry">
                        <mxPoint x="250" y="240" as="sourcePoint"/>
                        <mxPoint x="250" y="150" as="targetPoint"/>
                    </mxGeometry>
                </mxCell>
                <mxCell id="_NRN4qs7gIH1pBPz83vD-50" value="" style="endArrow=classic;html=1;rounded=0;fontSize=8;entryX=0;entryY=0.5;entryDx=0;entryDy=0;" parent="1" edge="1">
                    <mxGeometry width="50" height="50" relative="1" as="geometry">
                        <mxPoint x="250" y="174.91999999999996" as="sourcePoint"/>
                        <mxPoint x="270" y="174.91999999999996" as="targetPoint"/>
                    </mxGeometry>
                </mxCell>
                <mxCell id="_NRN4qs7gIH1pBPz83vD-51" value="" style="endArrow=classic;html=1;rounded=0;fontSize=8;entryX=0;entryY=0.5;entryDx=0;entryDy=0;" parent="1" edge="1">
                    <mxGeometry width="50" height="50" relative="1" as="geometry">
                        <mxPoint x="250" y="214.91999999999996" as="sourcePoint"/>
                        <mxPoint x="270" y="214.91999999999996" as="targetPoint"/>
                    </mxGeometry>
                </mxCell>
                <mxCell id="_NRN4qs7gIH1pBPz83vD-52" value="" style="endArrow=classic;html=1;rounded=0;fontSize=8;entryX=0;entryY=0.5;entryDx=0;entryDy=0;" parent="1" edge="1">
                    <mxGeometry width="50" height="50" relative="1" as="geometry">
                        <mxPoint x="250" y="240" as="sourcePoint"/>
                        <mxPoint x="270" y="254.9200000000002" as="targetPoint"/>
                        <Array as="points">
                            <mxPoint x="250" y="255"/>
                        </Array>
                    </mxGeometry>
                </mxCell>
                <mxCell id="_NRN4qs7gIH1pBPz83vD-53" value="./resources" style="rounded=0;whiteSpace=wrap;html=1;fontSize=8;" parent="1" vertex="1">
                    <mxGeometry x="730" y="120" width="100" height="30" as="geometry"/>
                </mxCell>
                <mxCell id="_NRN4qs7gIH1pBPz83vD-54" value="" style="endArrow=classic;html=1;rounded=0;entryX=1;entryY=0.5;entryDx=0;entryDy=0;fontSize=8;" parent="1" target="_NRN4qs7gIH1pBPz83vD-8" edge="1">
                    <mxGeometry width="50" height="50" relative="1" as="geometry">
                        <mxPoint x="180" y="295" as="sourcePoint"/>
                        <mxPoint x="170" y="265" as="targetPoint"/>
                    </mxGeometry>
                </mxCell>
                <mxCell id="_NRN4qs7gIH1pBPz83vD-55" value="/resources" style="rounded=0;whiteSpace=wrap;html=1;fontSize=8;" parent="1" vertex="1">
                    <mxGeometry x="760" y="240" width="100" height="30" as="geometry"/>
                </mxCell>
                <mxCell id="_NRN4qs7gIH1pBPz83vD-57" value="" style="endArrow=none;html=1;rounded=0;fontSize=8;" parent="1" edge="1">
                    <mxGeometry width="50" height="50" relative="1" as="geometry">
                        <mxPoint x="570" y="280" as="sourcePoint"/>
                        <mxPoint x="570" y="150" as="targetPoint"/>
                    </mxGeometry>
                </mxCell>
                <mxCell id="_NRN4qs7gIH1pBPz83vD-58" value="" style="endArrow=classic;html=1;rounded=0;fontSize=8;entryX=0;entryY=0.5;entryDx=0;entryDy=0;" parent="1" edge="1">
                    <mxGeometry width="50" height="50" relative="1" as="geometry">
                        <mxPoint x="570" y="174.92000000000007" as="sourcePoint"/>
                        <mxPoint x="590" y="174.92000000000007" as="targetPoint"/>
                    </mxGeometry>
                </mxCell>
                <mxCell id="_NRN4qs7gIH1pBPz83vD-59" value="" style="endArrow=classic;html=1;rounded=0;fontSize=8;entryX=0;entryY=0.5;entryDx=0;entryDy=0;" parent="1" edge="1">
                    <mxGeometry width="50" height="50" relative="1" as="geometry">
                        <mxPoint x="570" y="214.92000000000007" as="sourcePoint"/>
                        <mxPoint x="590" y="214.92000000000007" as="targetPoint"/>
                    </mxGeometry>
                </mxCell>
                <mxCell id="_NRN4qs7gIH1pBPz83vD-60" value="" style="endArrow=classic;html=1;rounded=0;fontSize=8;entryX=0;entryY=0.5;entryDx=0;entryDy=0;" parent="1" edge="1">
                    <mxGeometry width="50" height="50" relative="1" as="geometry">
                        <mxPoint x="570" y="254.92000000000007" as="sourcePoint"/>
                        <mxPoint x="590" y="254.92000000000007" as="targetPoint"/>
                    </mxGeometry>
                </mxCell>
                <mxCell id="_NRN4qs7gIH1pBPz83vD-61" value="" style="endArrow=classic;html=1;rounded=0;fontSize=8;entryX=0;entryY=0.5;entryDx=0;entryDy=0;" parent="1" edge="1">
                    <mxGeometry width="50" height="50" relative="1" as="geometry">
                        <mxPoint x="570" y="280" as="sourcePoint"/>
                        <mxPoint x="590" y="294.9200000000001" as="targetPoint"/>
                        <Array as="points">
                            <mxPoint x="570" y="295"/>
                        </Array>
                    </mxGeometry>
                </mxCell>
                <mxCell id="_NRN4qs7gIH1pBPz83vD-62" value="" style="endArrow=none;html=1;rounded=0;fontSize=8;" parent="1" edge="1">
                    <mxGeometry width="50" height="50" relative="1" as="geometry">
                        <mxPoint x="740" y="240" as="sourcePoint"/>
                        <mxPoint x="740" y="150" as="targetPoint"/>
                    </mxGeometry>
                </mxCell>
                <mxCell id="_NRN4qs7gIH1pBPz83vD-64" value="" style="endArrow=classic;html=1;rounded=0;fontSize=8;entryX=0;entryY=0.5;entryDx=0;entryDy=0;" parent="1" edge="1">
                    <mxGeometry width="50" height="50" relative="1" as="geometry">
                        <mxPoint x="740" y="174.92000000000007" as="sourcePoint"/>
                        <mxPoint x="760" y="174.92000000000007" as="targetPoint"/>
                    </mxGeometry>
                </mxCell>
                <mxCell id="_NRN4qs7gIH1pBPz83vD-65" value="" style="endArrow=classic;html=1;rounded=0;fontSize=8;entryX=0;entryY=0.5;entryDx=0;entryDy=0;" parent="1" edge="1">
                    <mxGeometry width="50" height="50" relative="1" as="geometry">
                        <mxPoint x="740" y="214.92000000000007" as="sourcePoint"/>
                        <mxPoint x="760" y="214.92000000000007" as="targetPoint"/>
                    </mxGeometry>
                </mxCell>
                <mxCell id="_NRN4qs7gIH1pBPz83vD-66" value="" style="endArrow=classic;html=1;rounded=0;fontSize=8;entryX=0;entryY=0.5;entryDx=0;entryDy=0;" parent="1" edge="1">
                    <mxGeometry width="50" height="50" relative="1" as="geometry">
                        <mxPoint x="740" y="240" as="sourcePoint"/>
                        <mxPoint x="760" y="254.92000000000007" as="targetPoint"/>
                        <Array as="points">
                            <mxPoint x="740" y="255"/>
                        </Array>
                    </mxGeometry>
                </mxCell>
                <mxCell id="_NRN4qs7gIH1pBPz83vD-77" value="File" style="rounded=1;whiteSpace=wrap;html=1;fontSize=8;" parent="1" vertex="1">
                    <mxGeometry x="340" y="35" width="100" height="30" as="geometry"/>
                </mxCell>
                <mxCell id="_NRN4qs7gIH1pBPz83vD-78" value="Folder" style="rounded=0;whiteSpace=wrap;html=1;fontSize=8;" parent="1" vertex="1">
                    <mxGeometry x="450" y="35" width="100" height="30" as="geometry"/>
                </mxCell>
            </root>
        </mxGraphModel>
    </diagram>
    <diagram id="rS4jqFgmvWVQwg1GV3gS" name="voiceStateUpdate">
        <mxGraphModel dx="735" dy="796" grid="1" gridSize="10" guides="1" tooltips="1" connect="1" arrows="1" fold="1" page="1" pageScale="1" pageWidth="850" pageHeight="1100" math="0" shadow="0">
            <root>
                <mxCell id="12kxjfh20ObPACn1ZUfI-0"/>
                <mxCell id="12kxjfh20ObPACn1ZUfI-1" parent="12kxjfh20ObPACn1ZUfI-0"/>
                <mxCell id="12kxjfh20ObPACn1ZUfI-2" value="Create new channel from null" style="rounded=1;whiteSpace=wrap;html=1;" parent="12kxjfh20ObPACn1ZUfI-1" vertex="1">
                    <mxGeometry x="105" y="170" width="120" height="60" as="geometry"/>
                </mxCell>
                <mxCell id="12kxjfh20ObPACn1ZUfI-4" value="voiceStateUpdate Event Emitted" style="rounded=0;whiteSpace=wrap;html=1;" parent="12kxjfh20ObPACn1ZUfI-1" vertex="1">
                    <mxGeometry x="285" y="60" width="275" height="60" as="geometry"/>
                </mxCell>
                <mxCell id="12kxjfh20ObPACn1ZUfI-9" value="Create new channel from existing non/del channel" style="rounded=1;whiteSpace=wrap;html=1;" parent="12kxjfh20ObPACn1ZUfI-1" vertex="1">
                    <mxGeometry x="275" y="170" width="120" height="60" as="geometry"/>
                </mxCell>
                <mxCell id="yWEca8ltIHsYL-4IVWMd-0" value="Create new channel from existing deletable channel" style="rounded=1;whiteSpace=wrap;html=1;" parent="12kxjfh20ObPACn1ZUfI-1" vertex="1">
                    <mxGeometry x="450" y="170" width="120" height="60" as="geometry"/>
                </mxCell>
                <mxCell id="yWEca8ltIHsYL-4IVWMd-1" value="Leaving VCs" style="rounded=1;whiteSpace=wrap;html=1;" parent="12kxjfh20ObPACn1ZUfI-1" vertex="1">
                    <mxGeometry x="625" y="170" width="120" height="60" as="geometry"/>
                </mxCell>
            </root>
        </mxGraphModel>
    </diagram>
</mxfile>